<?xml version="1.0" encoding="UTF-8"?>
<svg xmlns="http://www.w3.org/2000/svg" xmlns:xlink="http://www.w3.org/1999/xlink" width="20px" height="20px" viewBox="0 0 20 20" version="1.1">
<g id="surface1">
<path style="fill-rule:nonzero;fill:rgb(0%,61.960784%,92.156863%);fill-opacity:1;stroke-width:1;stroke-linecap:butt;stroke-linejoin:miter;stroke:rgb(0%,61.960784%,92.156863%);stroke-opacity:1;stroke-miterlimit:4;" d="M 355.980387 61.162496 C 274.620422 -20.27891 142.603902 -20.360352 61.162496 60.999613 C -20.27891 142.359578 -20.360352 274.376098 60.999613 355.817504 C 142.359578 437.25891 274.376098 437.340352 355.817504 355.980387 C 437.25891 274.620422 437.340352 142.603902 355.980387 61.162496 Z M 237.564582 340.750844 C 237.564582 344.0085 234.958457 346.614625 231.782242 346.614625 L 185.197758 346.614625 C 182.021543 346.614625 179.415418 344.0085 179.415418 340.750844 L 179.415418 167.850738 C 179.415418 164.674523 182.021543 162.068398 185.197758 162.068398 L 231.782242 162.068398 C 234.958457 162.068398 237.564582 164.674523 237.564582 167.850738 Z M 208.49 137.880301 C 189.839918 137.880301 174.691816 122.732199 174.691816 104.163559 C 174.691816 85.513477 189.839918 70.365375 208.49 70.365375 C 227.140082 70.365375 242.288184 85.513477 242.288184 104.163559 C 242.288184 122.732199 227.140082 137.880301 208.49 137.880301 Z M 208.49 137.880301 " transform="matrix(0.0479639,0,0,0.0479639,0,0)"/>
</g>
</svg>
