<svg xmlns="http://www.w3.org/2000/svg" width="17" height="16" viewBox="0 0 17 16"><defs><style>.a,.b{fill:#666;}.a{opacity:0;}</style></defs><g transform="translate(0.155 0.223)"><g transform="translate(0 0)"><rect class="a" width="17" height="16" transform="translate(-0.156 -0.223)"/><path class="b" d="M14.985,14.024l-2.3-2.294a5.36,5.36,0,0,0,1.144-3.316,5.414,5.414,0,1,0-5.414,5.414,5.36,5.36,0,0,0,3.316-1.144l2.294,2.3a.679.679,0,1,0,.961-.961ZM4.353,8.414a4.06,4.06,0,1,1,4.06,4.06,4.06,4.06,0,0,1-4.06-4.06Z" transform="translate(-0.834 -1.133)"/></g></g></svg>